<mxfile host="app.diagrams.net" agent="Mozilla/5.0 (Macintosh; Intel Mac OS X 10_15_7) AppleWebKit/537.36 (KHTML, like Gecko) Chrome/130.0.0.0 Safari/537.36" version="24.8.6">
  <diagram name="Page-1" id="lkc6xWLlDGLeA_boxeG3">
    <mxGraphModel dx="1194" dy="535" grid="1" gridSize="10" guides="1" tooltips="1" connect="1" arrows="1" fold="1" page="1" pageScale="1" pageWidth="850" pageHeight="1100" math="0" shadow="0">
      <root>
        <mxCell id="0" />
        <mxCell id="1" parent="0" />
        <mxCell id="hT2Q-yJEOAckeOupxTLc-16" value="" style="edgeStyle=orthogonalEdgeStyle;rounded=0;orthogonalLoop=1;jettySize=auto;html=1;" edge="1" parent="1" source="hT2Q-yJEOAckeOupxTLc-8" target="hT2Q-yJEOAckeOupxTLc-9">
          <mxGeometry relative="1" as="geometry" />
        </mxCell>
        <mxCell id="hT2Q-yJEOAckeOupxTLc-8" value="" style="ellipse;html=1;shape=startState;fillColor=#FFFFFF;strokeColor=#ff0000;" vertex="1" parent="1">
          <mxGeometry x="390" y="30" width="30" height="30" as="geometry" />
        </mxCell>
        <mxCell id="hT2Q-yJEOAckeOupxTLc-9" value="Logs in with credentials" style="rounded=1;whiteSpace=wrap;html=1;fillColor=#FFFFFF;strokeColor=#ff0000;" vertex="1" parent="1">
          <mxGeometry x="317.5" y="100" width="175" height="60" as="geometry" />
        </mxCell>
        <mxCell id="hT2Q-yJEOAckeOupxTLc-10" value="" style="edgeStyle=orthogonalEdgeStyle;rounded=0;orthogonalLoop=1;jettySize=auto;html=1;" edge="1" parent="1" source="hT2Q-yJEOAckeOupxTLc-12">
          <mxGeometry relative="1" as="geometry">
            <mxPoint x="405" y="330" as="targetPoint" />
          </mxGeometry>
        </mxCell>
        <mxCell id="hT2Q-yJEOAckeOupxTLc-11" value="Yes" style="edgeLabel;html=1;align=center;verticalAlign=middle;resizable=0;points=[];" vertex="1" connectable="0" parent="hT2Q-yJEOAckeOupxTLc-10">
          <mxGeometry x="0.0667" y="-2" relative="1" as="geometry">
            <mxPoint as="offset" />
          </mxGeometry>
        </mxCell>
        <mxCell id="hT2Q-yJEOAckeOupxTLc-15" style="edgeStyle=orthogonalEdgeStyle;rounded=0;orthogonalLoop=1;jettySize=auto;html=1;exitX=0;exitY=0.5;exitDx=0;exitDy=0;entryX=1;entryY=0.5;entryDx=0;entryDy=0;" edge="1" parent="1" source="hT2Q-yJEOAckeOupxTLc-12" target="hT2Q-yJEOAckeOupxTLc-13">
          <mxGeometry relative="1" as="geometry" />
        </mxCell>
        <mxCell id="hT2Q-yJEOAckeOupxTLc-12" value="Credentials Verified?" style="rhombus;whiteSpace=wrap;html=1;fillColor=#FFFFFF;strokeColor=#ff0000;rounded=1;" vertex="1" parent="1">
          <mxGeometry x="332.5" y="190" width="145" height="80" as="geometry" />
        </mxCell>
        <mxCell id="hT2Q-yJEOAckeOupxTLc-18" style="edgeStyle=orthogonalEdgeStyle;rounded=0;orthogonalLoop=1;jettySize=auto;html=1;entryX=0.5;entryY=0;entryDx=0;entryDy=0;" edge="1" parent="1" source="hT2Q-yJEOAckeOupxTLc-13" target="hT2Q-yJEOAckeOupxTLc-14">
          <mxGeometry relative="1" as="geometry" />
        </mxCell>
        <mxCell id="hT2Q-yJEOAckeOupxTLc-13" value="Display Error Message" style="whiteSpace=wrap;html=1;fillColor=#FFFFFF;strokeColor=#ff0000;rounded=1;" vertex="1" parent="1">
          <mxGeometry x="120" y="200" width="120" height="60" as="geometry" />
        </mxCell>
        <mxCell id="hT2Q-yJEOAckeOupxTLc-14" value="Re-enter Credentials" style="whiteSpace=wrap;html=1;fillColor=#FFFFFF;strokeColor=#ff0000;rounded=1;" vertex="1" parent="1">
          <mxGeometry x="120" y="340" width="120" height="60" as="geometry" />
        </mxCell>
        <mxCell id="hT2Q-yJEOAckeOupxTLc-17" value="" style="edgeStyle=orthogonalEdgeStyle;rounded=0;orthogonalLoop=1;jettySize=auto;html=1;exitX=0.5;exitY=1;exitDx=0;exitDy=0;entryX=0.5;entryY=0;entryDx=0;entryDy=0;" edge="1" parent="1" source="hT2Q-yJEOAckeOupxTLc-9" target="hT2Q-yJEOAckeOupxTLc-12">
          <mxGeometry relative="1" as="geometry">
            <mxPoint x="492.5" y="190" as="sourcePoint" />
            <mxPoint x="492.5" y="230" as="targetPoint" />
          </mxGeometry>
        </mxCell>
      </root>
    </mxGraphModel>
  </diagram>
</mxfile>
